# File created by Blade
# Date/Time:  Wed Jan 21 17:16:13 2015
#---------------------------------------------------------
:version 1.10
:name HOM
:units
  mass 1.0
  length 1.000000
  angle deg
:documentation
     Acclaim Skeleton File
:root
   axis xyz
   order TX TY TZ RX RY RZ
   position 0.000000 0.000000 0.000000
   orientation 0 0 0
:bonedata
   begin
      id 1
      name Spine_dum
      direction 0.000000 1.000000 0.000000
      length 7.067664
      axis 0.0 0.0 0.0 xyz
   end
   begin
      id 2
      name LeftUpLeg_dum
      direction 1.000000 0.000000 0.000000
      length 4.013002
      axis 0.0 0.0 0.0 xyz
   end
   begin
      id 3
      name RightUpLeg_dum
      direction -1.000000 0.000000 0.000000
      length 4.013002
      axis 0.0 0.0 0.0 xyz
   end
   begin
      id 4
      name Spine
      direction 0.000000 1.000000 0.000000
      length 0.000000
      axis 0.0 0.0 0.0 xyz
      dof rx ry rz
   end
   begin
      id 5
      name Spine_dum1
      direction 0.000000 1.000000 0.000000
      length 15.039886
      axis 0.0 0.0 0.0 xyz
   end
   begin
      id 6
      name Spine_dum2
      direction 0.000000 1.000000 0.000000
      length 10.530368
      axis 0.0 0.0 0.0 xyz
   end
   begin
      id 7
      name Spine_dum3
      direction 0.000000 1.000000 0.000000
      length 10.530368
      axis 0.0 0.0 0.0 xyz
   end
   begin
      id 8
      name Head
      direction 0.000000 1.000000 0.000000
      length 4.527550
      axis 0.0 0.0 0.0 xyz
      dof rx ry rz
   end
   begin
      id 9
      name LeftShoulder
      direction 1.000000 0.000000 0.000000
      length 7.028855
      axis 0.0 0.0 -90.0 xyz
      dof rx ry rz
   end
   begin
      id 10
      name LeftArm
      direction 1.000000 0.000000 0.000000
      length 10.797705
      axis 0.0 0.0 -90.0 xyz
      dof rx ry rz
   end
   begin
      id 11
      name LeftForeArm
      direction 1.000000 0.000000 0.000000
      length 7.907442
      axis 0.0 0.0 -90.0 xyz
      dof ry rz rx
   end
   begin
      id 12
      name LeftHand
      direction 0.000000 0.000000 0.000000
      length 0.000000
      axis 0.0 0.0 -90.0 xyz
      dof rx ry rz
   end
   begin
      id 13
      name LeftHand_dum1
      direction 0.000000 0.000000 0.000000
      length 0.000000
      axis 0.0 0.0 -90.0 xyz
   end
   begin
      id 14
      name LeftHand_dum2
      direction 1.000000 0.000000 0.000000
      length 3.937000
      axis 0.0 0.0 -90.0 xyz
   end
   begin
      id 15
      name LeftHandThumb1
      direction 0.000000 0.000000 1.000000
      length 3.937000
      axis 0.0 0.0 -90.0 xyz
      dof rx rz ry
   end
   begin
      id 16
      name RightShoulder
      direction -1.000000 0.000000 0.000000
      length 7.028855
      axis 0.0 0.0 90.0 xyz
      dof rx ry rz
   end
   begin
      id 17
      name RightArm
      direction -1.000000 0.000000 0.000000
      length 10.797705
      axis 0.0 0.0 90.0 xyz
      dof rx ry rz
   end
   begin
      id 18
      name RightForeArm
      direction -1.000000 0.000000 0.000000
      length 7.907442
      axis 0.0 0.0 90.0 xyz
      dof ry rz rx
   end
   begin
      id 19
      name RightHand
      direction 0.000000 0.000000 0.000000
      length 0.000000
      axis 0.0 0.0 90.0 xyz
      dof rx ry rz
   end
   begin
      id 20
      name RightHand_dum1
      direction 0.000000 0.000000 0.000000
      length 0.000000
      axis 0.0 0.0 90.0 xyz
   end
   begin
      id 21
      name RightHand_dum2
      direction -1.000000 0.000000 0.000000
      length 3.937000
      axis 0.0 0.0 90.0 xyz
   end
   begin
      id 22
      name RightHandThumb1
      direction 0.000000 0.000000 1.000000
      length 3.937000
      axis 0.0 0.0 90.0 xyz
      dof rx rz ry
   end
   begin
      id 23
      name LeftUpLeg
      direction 0.000000 -1.000000 0.000000
      length 16.899758
      axis 0.0 0.0 0.0 xyz
      dof rx ry rz
   end
   begin
      id 24
      name LeftLeg
      direction 0.000000 -1.000000 0.000000
      length 17.389183
      axis 0.0 0.0 0.0 xyz
      dof rx ry rz
   end
   begin
      id 25
      name LeftFoot
      direction 0.000000 -0.258819 0.965926
      length 4.924528
      axis 15.0 0.0 0.0 xyz
      dof rx ry rz
   end
   begin
      id 26
      name LeftToeBase
      direction 0.000000 0.000000 1.000000
      length 2.952750
      axis 0.0 0.0 0.0 xyz
      dof rx ry rz
   end
   begin
      id 27
      name RightUpLeg
      direction 0.000000 -1.000000 0.000000
      length 16.899758
      axis 0.0 0.0 0.0 xyz
      dof rx ry rz
   end
   begin
      id 28
      name RightLeg
      direction 0.000000 -1.000000 0.000000
      length 17.389183
      axis 0.0 0.0 0.0 xyz
      dof rx ry rz
   end
   begin
      id 29
      name RightFoot
      direction 0.000000 -0.258819 0.965926
      length 4.924528
      axis 15.0 0.0 0.0 xyz
      dof rx ry rz
   end
   begin
      id 30
      name RightToeBase
      direction 0.000000 0.000000 1.000000
      length 2.952750
      axis 0.0 0.0 0.0 xyz
      dof rx ry rz
   end
:hierarchy
   begin
      root Spine_dum LeftUpLeg_dum RightUpLeg_dum
      Spine_dum Spine
      LeftUpLeg_dum LeftUpLeg
      RightUpLeg_dum RightUpLeg
      Spine Spine_dum1 Spine_dum2 Spine_dum3
      Spine_dum1 Head
      Spine_dum2 LeftShoulder
      Spine_dum3 RightShoulder
      LeftShoulder LeftArm
      LeftArm LeftForeArm
      LeftForeArm LeftHand
      LeftHand LeftHand_dum1 LeftHand_dum2
      LeftHand_dum1 LeftHandThumb1
      RightShoulder RightArm
      RightArm RightForeArm
      RightForeArm RightHand
      RightHand RightHand_dum1 RightHand_dum2
      RightHand_dum1 RightHandThumb1
      LeftUpLeg LeftLeg
      LeftLeg LeftFoot
      LeftFoot LeftToeBase
      RightUpLeg RightLeg
      RightLeg RightFoot
      RightFoot RightToeBase
   end

# File created by Blade
# Date/Time:  Wed Jan 21 17:16:23 2015
# Frame Rate: 120.000 fps
#------------------------------------------------------
:FULLY-SPECIFIED
:DEGREES
1
root 19.588293 35.448574 -22.394200 -175.237206 -0.345221 -179.197273
Spine -14.544429 0.090396 -0.788333
Head 7.697641 -1.980234 2.736938
LeftShoulder -12.229457 -32.641964 21.003263
LeftArm 3.596381 3.428606 -5.761976
LeftForeArm 9.752780 -0.000000 -3.020946
LeftHand -9.555974 0.000000 -8.267231
LeftHandThumb1 -26.253704 0.000000 33.147579
RightShoulder -12.929546 -3.931581 -9.252189
RightArm 9.150491 34.194608 9.849499
RightForeArm -38.230425 -0.000000 5.776162
RightHand -7.817345 -0.000000 10.216394
RightHandThumb1 -24.326973 -0.000000 -32.862282
LeftUpLeg 6.264814 13.109949 2.108690
LeftLeg -6.477155 -0.000000 0.000000
LeftFoot -20.442337 24.509955 -14.396526
LeftToeBase 24.413911 -0.000000 -0.000000
RightUpLeg 4.611047 -8.106402 -0.465789
RightLeg -3.881165 -0.000000 0.000000
RightFoot -21.357048 -24.766488 15.210598
RightToeBase 25.044206 -0.000000 -0.000000
2
root 19.586974 35.449068 -22.394641 -175.239933 -0.333700 -179.196406
Spine -14.543138 0.095602 -0.795208
Head 7.724478 -1.975505 2.734556
LeftShoulder -12.245973 -32.627607 21.004463
LeftArm 3.610197 3.424249 -5.768741
LeftForeArm 9.731856 -0.000000 -3.030771
LeftHand -9.555079 -0.000000 -8.286682
LeftHandThumb1 -26.253704 0.000000 33.147579
RightShoulder -12.914809 -3.916687 -9.252719
RightArm 9.156157 34.196251 9.847005
RightForeArm -38.237800 -0.000000 5.738029
RightHand -7.770897 -0.000000 10.185908
RightHandThumb1 -24.326973 -0.000000 -32.862282
LeftUpLeg 6.270588 13.134734 2.107562
LeftLeg -6.480792 -0.000000 0.000000
LeftFoot -20.442602 24.500968 -14.418964
LeftToeBase 24.357206 -0.000000 -0.000000
RightUpLeg 4.608471 -8.107253 -0.468310
RightLeg -3.871224 -0.000000 0.000000
RightFoot -21.351263 -24.757977 15.216392
RightToeBase 24.983409 -0.000000 -0.000000
3
root 19.586394 35.448954 -22.393999 -175.236253 -0.333368 -179.195037
Spine -14.546232 0.101245 -0.804047
Head 7.736270 -1.993956 2.732983
LeftShoulder -12.248980 -32.643179 21.010627
LeftArm 3.609884 3.404374 -5.777819
LeftForeArm 9.752361 -0.000000 -3.041211
LeftHand -9.538903 -0.000000 -8.312967
LeftHandThumb1 -26.253704 0.000000 33.147579
RightShoulder -12.915462 -3.910396 -9.258967
RightArm 9.162165 34.209350 9.855101
RightForeArm -38.242148 -0.000000 5.724254
RightHand -7.768839 -0.000000 10.198207
RightHandThumb1 -24.326973 -0.000000 -32.862282
LeftUpLeg 6.264103 13.131312 2.106272
LeftLeg -6.475735 -0.000000 0.000000
LeftFoot -20.448391 24.501832 -14.415136
LeftToeBase 24.402427 -0.000000 -0.000000
RightUpLeg 4.599309 -8.107172 -0.468135
RightLeg -3.863675 -0.000000 0.000000
RightFoot -21.356943 -24.767447 15.208443
RightToeBase 25.032708 -0.000000 -0.000000
4
root 19.585131 35.448948 -22.393498 -175.227102 -0.322411 -179.191704
Spine -14.563285 0.122209 -0.809940
Head 7.771014 -2.008028 2.732227
LeftShoulder -12.236423 -32.637518 20.995275
LeftArm 3.617776 3.421173 -5.772825
LeftForeArm 9.712730 -0.000000 -3.057639
LeftHand -9.515719 -0.000000 -8.344999
LeftHandThumb1 -26.253704 0.000000 33.147579
RightShoulder -12.916427 -3.895674 -9.276232
RightArm 9.158792 34.200658 9.870359
RightForeArm -38.262063 -0.000000 5.741973
RightHand -7.817526 0.000000 10.224319
RightHandThumb1 -24.326973 -0.000000 -32.862282
LeftUpLeg 6.259707 13.140334 2.104689
LeftLeg -6.484963 -0.000000 0.000000
LeftFoot -20.438879 24.510047 -14.407567
LeftToeBase 24.372020 -0.000000 -0.000000
RightUpLeg 4.584388 -8.089169 -0.466112
RightLeg -3.855026 -0.000000 0.000000
RightFoot -21.368021 -24.758120 15.239158
RightToeBase 24.972603 -0.000000 -0.000000
5
root 19.584606 35.449018 -22.393409 -175.223484 -0.314014 -179.187831
Spine -14.567788 0.128108 -0.816456
Head 7.789311 -2.017139 2.726075
LeftShoulder -12.243328 -32.663108 20.997892
LeftArm 3.611930 3.434377 -5.764048
LeftForeArm 9.696552 0.000000 -3.051420
LeftHand -9.521654 0.000000 -8.378914
LeftHandThumb1 -26.253704 0.000000 33.147579
RightShoulder -12.909009 -3.903168 -9.282072
RightArm 9.158761 34.201439 9.879347
RightForeArm -38.235351 -0.000000 5.740472
RightHand -7.811819 -0.000000 10.212993
RightHandThumb1 -24.326973 -0.000000 -32.862282
LeftUpLeg 6.257266 13.151064 2.106371
LeftLeg -6.484939 -0.000000 0.000000
LeftFoot -20.448355 24.505396 -14.409131
LeftToeBase 24.409265 -0.000000 -0.000000
RightUpLeg 4.574846 -8.097965 -0.465750
RightLeg -3.847788 -0.000000 0.000000
RightFoot -21.359733 -24.734830 15.279768
RightToeBase 24.947562 -0.000000 -0.000000
6
root 19.584147 35.448976 -22.393914 -175.226983 -0.306709 -179.188710
Spine -14.557150 0.124034 -0.829470
Head 7.783914 -2.021053 2.738279
LeftShoulder -12.275461 -32.698950 21.034136
LeftArm 3.594772 3.428351 -5.778575
LeftForeArm 9.701558 0.000000 -3.027585
LeftHand -9.535498 -0.000000 -8.393159
LeftHandThumb1 -26.253704 0.000000 33.147579
RightShoulder -12.907265 -3.877272 -9.284837
RightArm 9.163553 34.175007 9.885876
RightForeArm -38.226643 -0.000000 5.757838
RightHand -7.841009 0.000000 10.231109
RightHandThumb1 -24.326973 -0.000000 -32.862282
LeftUpLeg 6.265783 13.151938 2.105382
LeftLeg -6.489354 -0.000000 0.000000
LeftFoot -20.447961 24.512271 -14.408863
LeftToeBase 24.355502 -0.000000 -0.000000
RightUpLeg 4.573956 -8.100692 -0.467439
RightLeg -3.838386 -0.000000 0.000000
RightFoot -21.363955 -24.737059 15.225405
RightToeBase 25.046079 -0.000000 -0.000000
7
root 19.583069 35.448826 -22.394168 -175.228851 -0.294015 -179.185776
Spine -14.555532 0.131406 -0.832408
Head 7.805311 -2.012989 2.734303
LeftShoulder -12.287703 -32.686645 21.026444
LeftArm 3.598425 3.393651 -5.767873
LeftForeArm 9.692490 -0.000000 -3.015320
LeftHand -9.561440 -0.000000 -8.411258
LeftHandThumb1 -26.253704 0.000000 33.147579
RightShoulder -12.901912 -3.863320 -9.301589
RightArm 9.169368 34.186931 9.906446
RightForeArm -38.304055 -0.000000 5.764610
RightHand -7.821384 -0.000000 10.248141
RightHandThumb1 -24.326973 -0.000000 -32.862282
LeftUpLeg 6.275041 13.168149 2.105825
LeftLeg -6.500776 -0.000000 0.000000
LeftFoot -20.445605 24.514056 -14.410565
LeftToeBase 24.395298 -0.000000 -0.000000
RightUpLeg 4.575596 -8.082244 -0.467165
RightLeg -3.840621 -0.000000 0.000000
RightFoot -21.361541 -24.745356 15.227162
RightToeBase 24.998617 -0.000000 -0.000000
